<svg xmlns="http://www.w3.org/2000/svg" viewBox="0 0 24 24">
  <defs>
    <linearGradient id="dbGradient" x1="0%" y1="0%" x2="0%" y2="100%">
      <stop offset="0%" style="stop-color:#6366F1"/>
      <stop offset="100%" style="stop-color:#4F46E5"/>
    </linearGradient>
  </defs>
  
  <!-- Middle and bottom sections -->
  <path d="M4 8V16C4 18.209 7.582 20 12 20C16.418 20 20 18.209 20 16V8" 
        fill="none"
        stroke="url(#dbGradient)"
        stroke-width="1.5"/>
  
  <!-- Top ellipse -->
  <path d="M12 12C7.582 12 4 10.209 4 8C4 5.791 7.582 4 12 4C16.418 4 20 5.791 20 8C20 10.209 16.418 12 12 12Z" 
        fill="none"
        stroke="#6366F1"
        stroke-width="1.5"/>
  
  <!-- Middle section line -->
  <path d="M4 12C4 14.209 7.582 16 12 16C16.418 16 20 14.209 20 12" 
        fill="none" 
        stroke="#6366F1"
        stroke-width="1.5"/>
</svg>
